# xmcd
#
# Track frame offsets:
#	150
#	12543
#	29213
#	51595
#	69512
#	84209
#	97543
#	116116
#	133110
#	149524
#	166400
#	184268
#	198380
#	212979
#	226046
#	241418
#	256802
#	272417
#	288758
#
# Disc length: 4036 seconds
#
# Revision: 2
# Processed by: cddbd v1.5.2PL0 Copyright (c) Steve Scherf et al.
# Submitted via: audiograbber 1.83.01
#
DISCID=150fc213
DTITLE=Various Artist -  Hott Country 199 
DYEAR=2012
DGENRE=Country
TTITLE0=Toby Keith - I Like Girls That Drink Beer
TTITLE1=Kix Brooks - Bring It On Home (Radio Edit)
TTITLE2=Kenny Chesney - El Cerrito Place (Single Edit)
TTITLE3=Darius Rucker - True Believers
TTITLE4=Alan Jackson - You Go Your Way
TTITLE5=Deric Ruttan - My Kind of Freedom
TTITLE6=Sean Hogan - Make It Look Easy
TTITLE7=Kelleigh Bannen - Sorry on the Rocks
TTITLE8=Billy Rae Cyrus - Change My Mind
TTITLE9=Brantley Gilbert - Kick It In The Sticks
TTITLE10=Johnny Reid - Dedicated To You
TTITLE11=Dean Brody FT Great Big Sea - It's Friday
TTITLE12=Jerry Serda - Everyday Man
TTITLE13=Eli Young Band - Say Goodnight (Radio Edit)
TTITLE14=Brooklyn Roebuck - The Way I See You
TTITLE15=Gord Bamford - Disappearing Tail Lights
TTITLE16=Kristen Kelly - Ex Old Man (Radio Edit)
TTITLE17=Hey Romeo - Maybe You Remember Me Now
TTITLE18=Friday Night Sattelites - Always Something Good
EXTD=Sept 2012
EXTT0=
EXTT1=
EXTT2=
EXTT3=
EXTT4=
EXTT5=
EXTT6=
EXTT7=
EXTT8=
EXTT9=
EXTT10=
EXTT11=
EXTT12=
EXTT13=
EXTT14=
EXTT15=
EXTT16=
EXTT17=
EXTT18=
PLAYORDER=
